<svg width="444" height="444" viewBox="0 0 444 444" fill="none" xmlns="http://www.w3.org/2000/svg">
<path d="M200.601 71.6087C200.97 72.4375 202.661 74.4832 203.448 75.0828C202.267 69.9655 201.874 56.0759 221.951 54.2483C241.635 55.7103 240.848 72.1586 240.454 75.4483C238.879 79.8345 235.621 83.9907 234.155 84.9517V91.9107C251.297 90.6031 287.865 90.8478 297.003 102.287C300.58 104.546 303.608 107.562 306.791 110.33C309.376 112.579 310.422 112.605 312.804 110.113C313.293 109.601 313.709 109.025 314.12 108.455C318.204 102.775 322.415 97.1669 326.295 91.3702C328.034 88.7735 329.427 85.8841 330.37 82.9605C331.072 80.7858 330.915 78.3433 330.936 76.0185C330.999 69.2674 330.959 62.5155 330.959 55.7638C330.96 49.7039 330.979 43.6438 330.943 37.584C330.935 36.226 330.464 34.8328 330.67 33.5178C331.46 28.4772 330.877 23.5943 328.415 19.0823C326.649 15.8451 324.288 13.01 321.204 10.5049C317.232 7.27796 312.779 6.06123 307.84 6.00873C301.463 5.94093 295.082 6.28868 288.702 6.34342C280.896 6.41038 273.088 6.40696 265.282 6.34696C255.571 6.27233 245.848 5.79587 236.156 6.12899C231.949 6.27359 227.617 7.58769 223.677 9.11066C217.219 11.6066 211.569 15.3102 206.628 20.0439C200.016 26.3787 196.107 33.874 194.564 42.3933C193.508 48.223 193.954 54.1523 195.746 59.8385C197.012 63.8582 198.873 67.7243 200.601 71.6087Z" fill="#FF3D9A"/>
<rect x="91" y="116.066" width="262.958" height="221.387" rx="83" fill="#2563EB"/>
<rect x="122.903" y="147.969" width="201.085" height="159.515" rx="49" fill="#ABE0FF"/>
<circle cx="176.075" cy="220.476" r="21.2686" fill="#2563EB"/>
<circle cx="267.916" cy="220.476" r="21.2686" fill="#2563EB"/>
<path d="M112.608 368.389C109.901 344.414 124.048 331.975 131.46 328.752H312.243C315.143 330.686 338.346 346.637 331.578 372.74C324.811 398.842 268.4 437.513 232.146 437.996C195.893 438.479 115.992 398.359 112.608 368.389Z" fill="#2563EB"/>
<path d="M179.942 346.404C167.854 346.404 153.839 346.404 142.238 364.289C180.425 403.443 179.942 401.259 223.929 407.793C264.049 401.742 274.684 393.292 302.236 367.673C287.251 346.404 271.783 346.566 264.049 346.404C236.98 345.841 195.893 346.404 179.942 346.404Z" fill="#569CFF"/>
<path fill-rule="evenodd" clip-rule="evenodd" d="M234 90.892C240 87.1953 244 80.5647 244 73C244 61.402 234.598 52 223 52C211.402 52 202 61.402 202 73C202 79.6891 205.127 85.6478 210 89.4935V116H234V90.892Z" fill="#2563EB"/>
</svg>
